<?xml version="1.0" standalone="no"?>
<!DOCTYPE svg PUBLIC "-//W3C//DTD SVG 20010904//EN"
 "http://www.w3.org/TR/2001/REC-SVG-20010904/DTD/svg10.dtd">
<svg version="1.0" xmlns="http://www.w3.org/2000/svg"
 width="960.000000pt" height="960.000000pt" viewBox="0 0 960.000000 960.000000"
 preserveAspectRatio="xMidYMid meet">

<g transform="translate(0.000000,960.000000) scale(0.100000,-0.100000)"
fill="#000000" stroke="none">
<path d="M1829 9446 c-2 -2 -265 -7 -584 -10 -556 -6 -711 -9 -892 -22 -75 -5
-85 -8 -107 -34 -13 -16 -31 -49 -39 -72 -8 -24 -20 -59 -26 -78 -35 -102 -67
-1299 -39 -1485 7 -49 12 -121 11 -160 -2 -38 -3 -117 -2 -175 0 -58 -1 -330
-3 -605 -1 -275 -1 -538 1 -585 3 -90 3 -687 0 -780 -1 -30 -1 -77 1 -105 2
-27 3 -111 2 -185 -1 -149 -2 -3158 -1 -3310 3 -562 1 -771 -9 -815 -6 -27
-14 -100 -18 -161 -6 -108 -6 -112 17 -135 22 -22 24 -33 30 -199 4 -96 11
-186 15 -200 4 -14 22 -45 39 -70 42 -60 90 -76 289 -94 389 -37 529 -39 2562
-41 1107 -1 2016 -5 2022 -9 6 -3 183 -6 394 -6 211 1 691 1 1068 1 1299 0
1435 1 1495 4 33 2 132 9 220 15 282 18 354 21 659 28 297 7 298 7 315 30 9
13 26 35 39 49 12 14 22 37 22 50 0 13 7 34 15 46 40 61 76 1281 45 1485 -6
39 -11 107 -11 149 0 43 1 125 0 183 -1 513 -2 900 0 1025 1 83 -1 224 -4 315
-9 263 -6 528 6 592 9 44 9 73 1 111 -7 33 -8 84 -3 142 4 50 4 105 0 123 -4
18 -5 608 -2 1310 3 702 5 1293 5 1312 0 19 -2 123 -4 230 -2 107 1 253 7 323
8 99 8 142 -2 190 -15 72 -9 568 8 677 5 36 12 123 16 194 5 124 5 130 -16
145 -20 16 -22 29 -30 220 -5 112 -14 207 -19 210 -5 3 -18 24 -28 46 -27 56
-73 77 -188 82 -50 3 -311 6 -581 8 -269 1 -512 6 -540 9 -27 4 -57 7 -65 6
-8 0 -73 0 -145 1 -71 0 -139 1 -150 1 -11 0 -99 -3 -195 -6 -364 -13 -4210 2
-4715 18 -129 5 -447 6 -525 4 -14 -1 -100 2 -191 5 -91 4 -168 5 -170 3z
m7344 -147 c26 -7 41 -18 47 -35 6 -16 10 -1684 10 -4484 l0 -4459 -22 -25
c-20 -21 -35 -26 -105 -31 -80 -7 -82 -7 -88 16 -12 52 -26 144 -56 369 -35
270 -87 487 -186 780 -47 140 -173 412 -220 476 -13 17 -23 34 -23 38 0 4 -30
51 -67 104 -81 117 -179 217 -253 259 -30 17 -71 46 -90 63 -96 88 -140 132
-140 141 0 14 -176 261 -214 300 -32 33 -151 99 -178 99 -6 0 -61 24 -122 54
-94 46 -143 65 -266 104 -8 3 -22 6 -30 7 -8 1 -70 21 -138 44 -167 58 -238
75 -388 96 -101 14 -127 27 -154 81 -14 28 -40 61 -57 75 -37 28 -48 78 -13
59 16 -8 18 -8 14 4 -3 8 -14 16 -25 19 -31 8 -27 118 6 176 27 47 30 55 15
46 -5 -3 -3 7 5 22 8 15 15 37 15 47 0 11 8 28 18 39 16 19 16 20 -5 15 -19
-5 -21 -2 -18 25 4 29 22 50 35 42 4 -2 7 22 7 55 1 32 5 64 9 72 11 18 16
118 6 118 -10 0 -8 27 3 53 4 10 9 28 10 40 1 12 3 22 4 22 8 0 8 42 0 52 -7
8 -7 18 1 33 6 11 11 60 11 108 -1 127 4 220 12 228 4 4 2 14 -5 21 -8 10 -8
17 -2 21 13 9 38 98 31 109 -3 5 3 45 15 89 23 87 27 208 9 243 -13 23 -36 19
-27 -4 3 -8 1 -15 -4 -17 -8 -3 -13 -37 -26 -203 -6 -77 -19 -105 -29 -59 -3
16 -12 49 -20 74 -8 25 -15 63 -15 85 0 22 -5 47 -11 55 -13 18 -6 -94 10
-155 28 -110 41 -180 37 -192 -3 -7 -2 -23 3 -35 5 -13 5 -33 0 -45 -5 -14 -4
-25 2 -29 7 -4 6 -10 -1 -19 -7 -9 -6 -16 5 -25 21 -17 19 -30 -4 -30 -11 0
-22 -6 -25 -12 -2 -7 -3 8 -2 34 2 26 -1 45 -5 42 -5 -3 -9 -12 -9 -20 0 -8
-7 -17 -15 -20 -8 -4 -15 -13 -15 -22 0 -13 -3 -12 -20 3 -19 18 -29 8 -11
-10 17 -18 18 -135 1 -135 -5 0 -7 12 -4 28 2 15 0 41 -6 57 l-10 30 5 -32 c5
-34 -11 -55 -21 -29 -8 20 -24 21 -24 1 0 -9 -7 -18 -15 -21 -8 -4 -15 -13
-15 -21 0 -12 8 -14 33 -10 17 3 26 3 20 0 -7 -2 -13 -11 -13 -19 0 -8 -7 -14
-15 -14 -17 0 -20 -16 -5 -25 13 -8 13 -62 0 -70 -6 -3 -10 2 -10 12 0 16 -1
16 -16 1 -14 -14 -15 -23 -6 -59 6 -24 9 -45 7 -47 -10 -10 -25 12 -26 36 0
24 -1 25 -9 7 -10 -22 -13 -13 -10 27 1 14 -3 29 -9 33 -6 3 -11 19 -11 36 0
16 -5 29 -11 29 -8 0 -9 -11 -5 -32 4 -21 3 -28 -3 -19 -5 7 -14 10 -20 6 -8
-4 -9 -11 -3 -18 14 -18 23 -77 12 -77 -6 0 -10 7 -10 16 0 19 -20 14 -34 -9
-8 -12 -7 -26 2 -49 6 -17 10 -33 9 -34 -2 -2 -15 8 -30 22 -16 14 -34 24 -41
21 -7 -3 -17 3 -24 13 -15 24 -3 34 15 12 14 -16 14 -16 10 3 -10 44 -12 50
-22 57 -5 4 -10 18 -11 30 -2 61 -6 92 -11 80 -9 -22 -34 7 -27 33 4 16 -2 31
-20 50 -14 15 -26 34 -26 40 0 13 -23 26 -51 30 -21 2 -76 45 -58 45 9 0 10 3
2 11 -8 8 -17 8 -31 0 -29 -15 -34 -14 -23 6 8 16 4 18 -36 14 -41 -3 -47 0
-83 40 -23 26 -40 38 -40 29 0 -9 -8 -4 -18 13 -11 17 -25 27 -41 27 -13 0
-34 11 -47 25 -33 36 -67 34 -224 -12 -86 -25 -138 -51 -145 -73 -3 -11 -13
-20 -21 -20 -8 0 -14 -7 -14 -15 0 -9 -11 -21 -25 -27 -14 -6 -25 -16 -25 -22
0 -6 -5 -3 -11 7 -5 9 -21 17 -35 17 -20 0 -24 4 -20 18 8 25 -21 82 -48 91
-11 4 -76 18 -144 31 -106 20 -129 21 -175 11 -28 -7 -64 -15 -78 -18 -15 -3
-40 2 -57 11 -34 18 -34 36 0 69 10 10 18 23 17 30 0 9 -2 9 -6 0 -2 -7 -13
-13 -23 -13 -10 0 -21 -7 -24 -16 -10 -26 -34 1 -29 34 2 21 0 18 -12 -12 -11
-29 -12 -42 -4 -52 6 -7 9 -19 7 -25 -2 -7 6 -22 18 -34 15 -15 20 -30 17 -47
-5 -29 -30 -44 -85 -53 -21 -3 -38 -10 -38 -16 0 -6 -8 -9 -17 -8 -34 3 -54
-1 -48 -10 3 -5 1 -12 -5 -16 -5 -3 -10 1 -10 11 0 14 -7 16 -50 11 -45 -5
-50 -4 -50 13 0 34 -26 22 -98 -47 -38 -38 -84 -79 -101 -93 -16 -14 -30 -31
-31 -37 0 -20 -17 -15 -23 6 -3 14 -11 18 -26 14 -15 -4 -27 1 -36 13 -13 17
-14 18 -15 2 0 -10 5 -18 10 -18 6 0 10 -13 10 -29 0 -36 9 -61 21 -61 5 0 6
12 3 28 -7 24 -6 26 9 13 10 -7 17 -26 17 -42 0 -22 -4 -27 -17 -22 -12 5 -15
2 -10 -10 3 -9 2 -19 -3 -22 -12 -8 -13 -45 -1 -45 5 0 11 -11 14 -25 3 -18
-1 -29 -14 -36 -15 -8 -23 -3 -44 31 -14 22 -30 40 -35 40 -12 0 -13 -17 -1
-24 13 -9 20 -67 7 -63 -6 2 -12 12 -12 23 -1 10 -9 33 -18 49 -20 38 -20 64
-1 71 11 5 12 11 5 24 -6 10 -7 26 -4 34 4 11 1 16 -10 16 -9 0 -16 7 -16 15
0 8 -9 19 -20 25 -11 6 -20 17 -20 25 0 8 -11 17 -24 21 -16 4 -26 15 -30 35
-3 17 -10 28 -16 24 -5 -3 -17 3 -27 15 -10 11 -23 20 -29 20 -6 0 -19 12 -29
26 -9 15 -12 23 -5 19 8 -5 11 0 8 16 -4 29 -28 38 -28 9 0 -12 -4 -18 -10
-15 -6 4 -8 11 -5 16 4 5 -1 9 -10 9 -9 0 -19 -9 -22 -20 -7 -26 -32 -26 -41
1 -7 19 -9 19 -21 5 -13 -15 -16 -15 -33 1 -13 11 -36 18 -61 18 -23 0 -42 5
-44 13 -3 6 2 12 10 12 14 0 31 50 20 60 -3 3 -16 -8 -29 -25 -24 -30 -29 -73
-10 -87 14 -10 -13 -38 -30 -31 -8 3 -14 15 -13 27 4 45 -2 67 -18 73 -25 9
-39 25 -47 51 -5 13 -3 22 3 22 6 0 11 -9 11 -19 0 -23 16 -36 25 -21 10 16
25 120 19 135 -4 9 -16 12 -39 8 -46 -7 -55 13 -44 100 5 37 11 72 14 77 4 6
1 10 -4 10 -7 0 -11 32 -11 85 0 50 4 85 10 85 6 0 10 5 10 10 0 6 -7 10 -15
10 -16 0 -21 35 -6 44 5 4 12 30 16 59 4 28 12 61 18 72 6 11 11 38 13 60 1
22 2 49 3 61 0 12 12 33 26 48 14 15 25 36 25 47 0 10 5 19 10 19 6 0 10 8 10
18 0 9 11 37 25 61 14 23 25 49 25 56 0 7 15 35 33 62 54 81 73 139 42 127
-16 -7 -22 21 -6 30 12 8 20 56 10 56 -5 0 -9 12 -9 28 l0 27 -20 -25 -20 -25
0 31 c0 17 7 37 15 44 8 7 13 16 10 20 -3 5 0 21 5 36 8 19 8 30 0 38 -7 7
-10 5 -10 -7 0 -9 -5 -17 -11 -17 -5 0 -15 -13 -20 -30 -6 -16 -17 -30 -25
-30 -19 0 -18 64 1 80 8 7 15 18 15 25 0 7 6 15 14 18 15 6 29 47 15 47 -15 0
-10 97 8 141 9 23 38 65 65 93 26 28 48 55 48 60 0 22 233 246 256 246 7 0 14
7 17 15 8 20 185 136 192 125 7 -11 31 -3 68 23 16 11 37 17 49 14 11 -3 31 1
43 9 25 16 91 17 166 2 30 -6 55 -5 74 2 22 8 30 8 37 -2 6 -10 8 -10 8 0 0 6
7 12 15 12 8 0 15 -4 15 -10 0 -15 54 -12 76 5 10 8 31 15 46 15 14 0 29 6 32
13 3 6 4 0 2 -15 -4 -35 6 -36 24 -3 14 26 34 33 45 15 3 -5 21 -10 40 -10 19
0 37 -4 40 -10 3 -5 12 -10 18 -10 7 0 3 7 -7 15 -30 23 -10 31 30 12 25 -12
40 -14 53 -7 18 9 107 7 117 -3 3 -3 19 0 35 6 23 9 32 9 38 -1 5 -9 17 -11
34 -6 17 4 27 2 27 -5 0 -19 22 -12 27 9 4 15 9 18 18 10 9 -8 15 -8 20 0 3 5
15 10 26 10 11 0 17 5 14 10 -11 18 64 11 106 -10 22 -12 43 -18 48 -16 9 6
176 -77 202 -100 8 -8 20 -14 25 -14 19 0 131 -86 207 -159 43 -41 95 -91 115
-110 94 -88 286 -344 281 -374 -2 -14 5 -35 32 -95 10 -23 19 -47 19 -53 0 -5
10 -31 21 -57 13 -27 17 -48 11 -50 -11 -3 -6 -32 13 -77 7 -16 16 -50 20 -75
4 -25 22 -92 40 -150 37 -119 61 -246 70 -370 14 -209 48 -348 42 -177 -1 48
1 87 5 87 13 0 9 28 -4 33 -10 3 -10 7 1 20 12 15 11 17 -3 17 -19 0 -19 -7
-21 255 -3 240 -13 363 -31 390 -8 11 -14 31 -14 46 0 14 -9 52 -21 85 -11 32
-27 84 -35 114 -16 54 -72 170 -98 200 -7 8 -16 26 -19 40 -4 14 -35 54 -71
90 -36 35 -70 74 -77 86 -6 13 -25 28 -41 35 -17 7 -34 25 -43 45 -8 19 -25
39 -39 45 -14 7 -28 20 -31 30 -10 32 -53 51 -106 47 -56 -4 -79 18 -29 29 16
3 27 9 24 14 -3 5 3 9 13 10 14 0 13 2 -5 10 -13 5 -21 13 -18 18 6 9 -52 41
-73 41 -6 0 -11 5 -11 10 0 6 -7 10 -15 10 -8 0 -15 5 -15 10 0 6 -7 10 -15
10 -22 0 -18 21 5 27 11 3 20 10 20 15 0 5 -4 6 -10 3 -5 -3 -10 2 -10 13 0
10 -11 29 -24 41 -20 18 -36 23 -85 23 -34 1 -61 5 -61 9 0 5 4 9 9 9 14 0 20
25 11 41 -7 10 -11 6 -19 -15 -10 -25 -12 -26 -27 -12 -8 9 -22 16 -30 16 -7
0 -17 12 -20 28 -10 37 -39 75 -75 96 -16 9 -27 21 -24 27 3 5 -1 6 -10 3 -11
-4 -14 -13 -9 -28 6 -18 5 -19 -9 -8 -9 8 -22 39 -28 69 -22 99 -75 146 -144
129 -34 -9 -25 -21 17 -24 18 -2 36 -9 41 -17 4 -8 14 -21 22 -29 19 -18 19
-45 0 -70 -12 -16 -18 -17 -27 -8 -7 7 -20 12 -30 12 -22 0 -23 13 -3 30 12
10 18 10 33 -1 9 -7 6 -2 -7 12 -16 17 -25 20 -28 11 -4 -10 -8 -10 -19 -1
-12 10 -13 9 -8 -5 4 -11 1 -16 -11 -16 -20 0 -75 31 -75 42 0 4 -7 8 -15 8
-13 0 -13 -3 -3 -20 7 -11 18 -20 25 -20 7 0 13 -7 13 -15 0 -19 -16 -20 -27
-2 -9 16 -53 29 -53 17 0 -4 -9 -6 -20 -3 -11 3 -20 10 -20 15 0 7 -5 6 -13
-1 -8 -6 -33 -8 -65 -4 -46 5 -50 8 -41 24 6 11 6 19 0 19 -5 0 -12 11 -15 25
-8 30 -26 33 -26 5 0 -11 -4 -20 -10 -20 -5 0 -10 7 -10 16 0 8 -5 12 -10 9
-6 -4 -8 -11 -5 -16 8 -12 -4 -49 -15 -49 -5 0 -14 9 -20 20 -9 17 -6 25 19
48 31 28 30 36 -3 62 -18 14 -19 13 -13 -17 5 -26 3 -31 -8 -26 -9 3 -27 -3
-41 -12 -21 -13 -31 -15 -50 -6 -13 6 -31 8 -39 5 -8 -4 -15 -2 -15 3 0 10
-129 9 -160 0 -93 -28 -112 -36 -92 -36 13 -1 35 -13 50 -27 l27 -26 -25 7
c-23 7 -24 7 -10 -10 14 -16 13 -17 -8 -11 -13 5 -22 3 -22 -3 0 -6 5 -11 10
-11 6 0 10 -5 10 -11 0 -8 -4 -8 -14 0 -10 8 -16 9 -21 1 -3 -6 -11 -7 -17 -4
-7 5 -9 1 -5 -9 5 -12 1 -17 -13 -18 -11 -1 -25 -2 -32 -3 -6 -1 -13 5 -16 13
-3 10 0 12 12 8 9 -4 16 -2 16 2 0 12 -27 21 -44 15 -8 -3 -12 -12 -9 -20 3
-7 -5 -26 -17 -41 -17 -22 -28 -27 -55 -24 -34 2 -74 -12 -87 -33 -11 -16 -10
-46 2 -46 6 0 10 8 10 18 0 10 5 23 12 30 14 14 78 16 78 2 0 -5 -30 -30 -67
-54 -76 -51 -123 -89 -123 -101 0 -5 11 2 25 15 30 28 41 23 19 -9 -13 -17
-24 -22 -46 -19 -28 5 -48 -12 -45 -37 1 -5 -18 -17 -43 -25 -25 -8 -51 -21
-58 -27 -7 -7 -25 -16 -38 -19 -14 -4 -23 -11 -21 -17 2 -7 -21 -31 -51 -54
-52 -40 -58 -42 -108 -38 -67 6 -99 -6 -122 -45 -11 -17 -39 -43 -63 -60 -61
-41 -150 -128 -179 -174 -28 -46 -80 -187 -87 -236 -3 -19 -11 -39 -17 -45 -7
-5 -19 -28 -26 -50 -7 -22 -26 -73 -42 -113 -21 -52 -33 -110 -44 -199 -8 -69
-17 -130 -20 -135 -3 -5 -8 -50 -10 -101 -2 -51 -8 -117 -13 -147 -24 -139
-32 -199 -34 -253 l-2 -57 -40 -1 c-22 -1 -33 -3 -24 -6 11 -3 15 -11 12 -24
-4 -13 0 -19 12 -19 11 0 15 -5 11 -15 -3 -8 -1 -15 5 -15 5 0 14 -11 19 -25
5 -14 14 -25 20 -25 5 0 10 -7 10 -16 0 -8 -4 -13 -9 -9 -5 3 -13 0 -17 -6 -5
-9 1 -10 19 -5 16 4 27 2 30 -7 7 -21 -4 -36 -21 -29 -11 4 -6 -7 13 -30 17
-20 34 -37 39 -37 5 -1 3 6 -4 14 -7 8 -10 21 -6 30 7 19 36 8 36 -14 0 -9 11
-29 25 -45 28 -33 32 -56 9 -56 -8 0 -12 5 -9 10 3 6 -1 10 -9 10 -20 0 -10
-27 15 -41 21 -11 25 -39 7 -57 -6 -6 -12 -31 -12 -54 -1 -40 -2 -42 -41 -53
-66 -17 -66 -17 -60 -118 4 -58 12 -98 21 -108 20 -22 17 -31 -6 -24 -11 4
-20 2 -20 -4 0 -6 -6 -11 -14 -11 -18 0 -33 43 -17 48 6 2 11 10 11 19 0 10
-6 12 -20 8 -14 -5 -20 -2 -20 9 0 10 -9 16 -24 16 -20 0 -25 7 -31 37 -4 21
-13 49 -20 64 -8 15 -11 29 -8 33 12 12 33 6 33 -9 0 -8 5 -15 11 -15 7 0 9
12 7 30 -3 17 -1 33 4 36 4 3 8 35 8 72 l0 67 -30 0 c-17 0 -30 -5 -30 -12 0
-7 -8 -13 -18 -13 -26 0 -47 20 -67 63 -22 47 -39 43 -43 -11 -2 -28 5 -58 22
-95 15 -30 26 -58 26 -64 0 -5 9 -28 20 -51 11 -22 20 -54 20 -70 0 -16 7 -43
16 -60 8 -18 13 -36 9 -41 -3 -6 14 -29 38 -53 24 -24 52 -56 63 -71 36 -51
134 -41 134 13 0 20 26 45 57 54 19 6 23 2 28 -28 4 -19 4 -39 0 -45 -3 -6 2
-11 13 -11 21 0 37 -46 20 -56 -5 -3 -6 -20 -2 -37 6 -30 5 -31 -11 -17 -17
14 -17 13 -6 -8 13 -25 7 -42 -14 -42 -8 0 -29 -9 -47 -20 -37 -22 -48 -25
-48 -10 0 6 6 10 13 10 8 0 14 12 14 30 0 17 -3 30 -7 30 -4 0 -17 9 -30 20
-32 28 -47 25 -55 -11 -5 -22 -1 -41 11 -65 18 -33 34 -44 34 -24 0 5 9 2 20
-7 11 -10 20 -23 20 -29 0 -6 14 -25 30 -42 17 -18 30 -35 29 -39 -3 -20 2
-33 12 -33 7 0 25 -14 41 -30 23 -25 27 -34 18 -50 -7 -14 -7 -20 0 -20 5 0
10 -9 10 -20 0 -11 7 -20 15 -20 8 0 15 -9 15 -20 0 -11 -4 -20 -10 -20 -6 0
-6 -9 0 -25 6 -15 6 -26 -1 -30 -5 -4 -6 -12 -2 -18 18 -29 12 -46 -17 -52
-16 -3 -43 -22 -60 -42 -27 -30 -31 -42 -29 -81 l3 -45 -54 -30 c-81 -43 -192
-77 -256 -77 -120 0 -216 -46 -324 -155 -52 -52 -75 -68 -120 -81 -30 -9 -70
-24 -90 -33 -24 -13 -63 -19 -127 -20 -124 -3 -182 -13 -301 -54 -80 -27 -118
-47 -184 -97 -46 -35 -85 -67 -88 -70 -7 -10 -168 -103 -225 -130 -42 -20 -72
-25 -185 -31 l-134 -7 -71 38 c-95 52 -186 80 -259 80 -90 0 -132 -15 -176
-63 -113 -123 -170 -179 -179 -176 -7 3 -11 1023 -13 3286 -3 3064 -2 3283 14
3299 9 9 34 20 55 24 63 13 8762 12 8806 -1z m-4714 -1814 c15 -16 14 -17 -7
-10 -19 5 -23 3 -20 -11 5 -31 -32 -29 -57 3 -13 15 -21 32 -18 37 9 13 84 -1
102 -19z m131 5 c0 -5 -2 -10 -4 -10 -3 0 -8 5 -11 10 -3 6 -1 10 4 10 6 0 11
-4 11 -10z m-103 -32 c-3 -8 -6 -5 -6 6 -1 11 2 17 5 13 3 -3 4 -12 1 -19z
m-102 -38 c-3 -5 -10 -10 -16 -10 -5 0 -9 5 -9 10 0 6 7 10 16 10 8 0 12 -4 9
-10z m760 -60 c-3 -5 -10 -10 -16 -10 -5 0 -9 5 -9 10 0 6 7 10 16 10 8 0 12
-4 9 -10z m-895 -30 c0 -5 -12 -10 -26 -10 -14 0 -23 4 -19 10 3 6 15 10 26
10 10 0 19 -4 19 -10z m1100 -25 c0 -8 9 -19 20 -25 20 -11 28 -50 10 -50 -5
0 -10 7 -10 15 0 7 -6 18 -14 22 -17 10 -31 53 -17 53 6 0 11 -7 11 -15z m205
-175 c3 -5 1 -10 -4 -10 -6 0 -11 5 -11 10 0 6 2 10 4 10 3 0 8 -4 11 -10z
m86 -6 c9 -11 10 -20 3 -32 -14 -22 -36 -28 -28 -8 3 9 1 16 -5 16 -6 0 -11 7
-11 16 0 8 -4 12 -10 9 -5 -3 -10 -1 -10 4 0 17 46 13 61 -5z m-981 -8 c0 -11
-19 -15 -25 -6 -3 5 1 10 9 10 9 0 16 -2 16 -4z m67 -2 c-3 -3 -12 -4 -19 -1
-8 3 -5 6 6 6 11 1 17 -2 13 -5z m1033 -174 c0 -5 -7 -10 -15 -10 -8 0 -15 5
-15 10 0 6 7 10 15 10 8 0 15 -4 15 -10z m-2370 -1010 c0 -5 -5 -10 -11 -10
-5 0 -7 5 -4 10 3 6 8 10 11 10 2 0 4 -4 4 -10z m-340 -164 c0 -3 -4 -8 -10
-11 -5 -3 -10 -1 -10 4 0 6 5 11 10 11 6 0 10 -2 10 -4z m150 -1146 c0 -5 -5
-10 -11 -10 -5 0 -7 5 -4 10 3 6 8 10 11 10 2 0 4 -4 4 -10z m160 -40 c0 -5
-7 -10 -15 -10 -8 0 -15 5 -15 10 0 6 7 10 15 10 8 0 15 -4 15 -10z m157 -12
c-3 -8 -6 -5 -6 6 -1 11 2 17 5 13 3 -3 4 -12 1 -19z m-27 -3 c0 -8 -4 -15
-10 -15 -5 0 -10 7 -10 15 0 8 5 15 10 15 6 0 10 -7 10 -15z m160 -69 c0 -2
-7 -7 -16 -10 -8 -3 -12 -2 -9 4 6 10 25 14 25 6z m2821 -43 c-9 -17 -10 -17
-16 -1 -4 9 -1 24 7 32 11 12 14 12 16 0 2 -7 -1 -21 -7 -31z m-2866 17 c-3
-5 -18 -10 -33 -10 -21 0 -24 2 -12 10 20 13 53 13 45 0z m70 -10 c3 -5 -8
-16 -24 -25 -42 -21 -48 -19 -21 10 25 27 35 30 45 15z m-100 -30 c3 -5 1 -10
-4 -10 -6 0 -11 5 -11 10 0 6 2 10 4 10 3 0 8 -4 11 -10z m111 -17 c-10 -10
-19 5 -10 18 6 11 8 11 12 0 2 -7 1 -15 -2 -18z m2771 -5 c-3 -8 -6 -5 -6 6
-1 11 2 17 5 13 3 -3 4 -12 1 -19z m-1185 -4 c4 -3 8 -16 8 -30 0 -23 -2 -24
-42 -17 -24 3 -47 12 -53 19 -8 10 -16 8 -37 -11 -16 -13 -28 -28 -28 -34 0
-5 -6 -12 -12 -14 -8 -3 -7 -6 4 -6 9 -1 20 -5 23 -11 4 -6 -11 -10 -37 -9
-24 0 -37 3 -30 6 23 9 12 23 -20 23 -23 0 -29 3 -19 9 35 23 -63 37 -119 17
-56 -20 -60 -20 -60 0 0 10 5 14 15 10 9 -3 18 1 22 10 3 8 12 13 20 10 7 -3
16 1 19 8 3 8 20 15 37 15 99 1 208 9 215 15 7 8 77 0 94 -10z m-1612 -29 c0
-8 -4 -15 -10 -15 -5 0 -10 7 -10 15 0 8 5 15 10 15 6 0 10 -7 10 -15z m1165
-35 c3 -5 1 -10 -4 -10 -6 0 -11 5 -11 10 0 6 2 10 4 10 3 0 8 -4 11 -10z
m145 -40 c-8 -5 -19 -10 -25 -10 -5 0 -3 5 5 10 8 5 20 10 25 10 6 0 3 -5 -5
-10z m729 -51 c-10 -6 -8 -9 9 -9 12 0 22 -4 22 -10 0 -12 -20 -13 -39 -1 -8
5 -11 16 -8 26 4 9 12 13 18 9 8 -4 7 -9 -2 -15z m-2589 -19 c0 -5 -4 -10 -10
-10 -5 0 -10 5 -10 10 0 6 5 10 10 10 6 0 10 -4 10 -10z m3230 -5 c0 -8 -4
-15 -10 -15 -5 0 -7 7 -4 15 4 8 8 15 10 15 2 0 4 -7 4 -15z m-3260 -4 c0 -6
-4 -13 -10 -16 -5 -3 -10 1 -10 9 0 9 5 16 10 16 6 0 10 -4 10 -9z m2693 3
c11 -11 -3 -24 -18 -18 -8 4 -12 10 -9 15 6 11 18 12 27 3z m-1393 -14 c0 -11
-48 -25 -57 -16 -3 3 5 10 18 15 32 13 39 13 39 1z m1870 -40 c0 -11 -4 -20
-10 -20 -5 0 -10 9 -10 20 0 11 5 20 10 20 6 0 10 -9 10 -20z m-2320 -17 c-1
-26 -17 -31 -40 -13 l-25 20 33 0 c17 0 32 -3 32 -7z m1261 -11 c41 -5 80 -12
87 -16 19 -12 14 -36 -8 -36 -11 0 -20 -4 -20 -9 0 -15 -33 -22 -42 -9 -6 10
-10 10 -16 0 -6 -9 -21 -10 -56 -3 -40 7 -46 6 -42 -6 4 -11 2 -13 -9 -9 -9 3
-15 0 -15 -9 0 -17 -2 -17 -24 -9 -9 3 -16 12 -16 20 0 8 -8 14 -17 14 -14 0
-15 2 -4 13 11 10 14 10 18 0 3 -7 12 -13 21 -13 15 1 15 2 2 13 -8 7 -24 23
-35 35 -16 20 -17 25 -5 33 8 5 35 7 60 5 25 -3 79 -9 121 -14z m-199 -13 l23
-12 -30 -13 c-18 -7 -38 -9 -51 -4 -12 5 -31 6 -43 3 -12 -3 -21 -1 -21 6 0 6
-7 11 -15 11 -8 0 -15 4 -15 8 0 14 127 14 152 1z m478 -16 c0 -17 -25 -73
-33 -73 -4 0 -6 4 -3 9 4 5 2 20 -3 34 -5 14 -7 28 -4 31 9 8 43 8 43 -1z
m680 -23 c0 -5 -4 -10 -10 -10 -5 0 -10 5 -10 10 0 6 5 10 10 10 6 0 10 -4 10
-10z m-1000 -50 c0 -5 -5 -10 -11 -10 -5 0 -7 5 -4 10 3 6 8 10 11 10 2 0 4
-4 4 -10z m60 1 c0 -6 -4 -13 -10 -16 -5 -3 -10 1 -10 9 0 9 5 16 10 16 6 0
10 -4 10 -9z m321 -64 c-15 -15 -14 -27 3 -27 13 0 23 -39 31 -120 4 -33 32
-85 37 -69 3 9 6 9 10 -2 8 -20 -11 -50 -19 -31 -2 6 -14 12 -24 12 -19 0 -19
-2 -5 -22 18 -25 22 -83 6 -73 -5 3 -10 -1 -10 -9 0 -27 -14 -17 -32 20 l-16
36 24 -5 c23 -4 24 -3 8 14 -11 12 -14 27 -10 44 8 32 -8 33 -64 4 -35 -18
-39 -24 -33 -47 5 -22 4 -24 -9 -12 -11 10 -13 23 -8 47 4 17 5 34 3 37 -3 2
4 2 16 -1 12 -3 21 -1 21 6 0 6 -7 11 -15 11 -8 0 -15 5 -15 10 0 6 9 10 19
10 35 0 77 79 51 95 -5 3 -10 0 -10 -8 0 -8 -9 -17 -20 -20 -18 -5 -19 -3 -5
23 8 16 19 32 25 35 16 10 12 28 -5 21 -8 -3 -15 -1 -15 3 0 12 29 23 41 15 5
-3 9 2 9 11 0 9 5 13 11 9 8 -4 8 -9 0 -17z m-853 -96 c16 -37 81 -53 108 -27
21 22 41 20 47 -4 6 -22 32 -27 43 -8 4 6 3 8 -4 4 -6 -3 -14 -1 -18 5 -5 9 0
10 17 6 13 -4 28 -7 33 -7 5 0 -14 -21 -43 -48 -28 -26 -51 -55 -51 -65 0 -9
-7 -17 -16 -17 -9 0 -14 -6 -11 -13 3 -7 -2 -22 -10 -32 -14 -19 -15 -19 -27
-2 -13 16 -14 16 -19 -3 -3 -11 -13 -20 -25 -20 -12 0 -22 -9 -25 -22 -4 -12
-9 -19 -12 -16 -4 3 -2 15 4 26 6 12 11 33 11 48 0 31 39 72 51 53 13 -21 25
0 21 36 -4 32 -7 36 -26 31 -11 -3 -29 -6 -38 -6 -10 0 -18 -5 -18 -11 0 -6 9
-9 20 -6 18 5 18 4 -2 -24 -12 -16 -25 -29 -29 -29 -10 0 -6 76 4 86 12 12 8
24 -7 24 -8 0 -17 8 -20 18 -3 9 -3 -1 -1 -23 2 -22 1 -32 -1 -22 -3 9 -11 17
-18 17 -12 0 -54 39 -45 41 2 0 14 2 27 3 13 2 31 10 40 19 22 23 25 22 40
-12z m-177 -28 c5 -15 3 -23 -7 -27 -8 -3 -12 -2 -9 3 3 5 1 12 -5 16 -14 9
-13 38 2 33 6 -2 15 -14 19 -25z m1168 -61 c0 -4 -4 -16 -9 -27 -8 -19 -9 -19
-9 1 -1 12 -8 25 -17 28 -8 3 -12 10 -9 16 7 11 46 -5 44 -18z m40 -11 c-14
-4 -30 19 -22 33 3 5 12 1 20 -10 10 -13 10 -20 2 -23z m-102 -103 c-3 -7 -5
-2 -5 12 0 14 2 19 5 13 2 -7 2 -19 0 -25z m-977 -48 c0 -22 -4 -28 -15 -24
-8 4 -15 1 -15 -7 0 -19 -13 -2 -17 22 -2 16 1 19 17 14 14 -5 20 -2 20 9 0 9
2 16 5 16 3 0 5 -13 5 -30z m93 -6 c-4 -13 -26 -11 -30 3 -2 6 4 10 14 9 10
-2 17 -7 16 -12z m1207 -964 c0 -5 -4 -10 -10 -10 -5 0 -10 5 -10 10 0 6 5 10
10 10 6 0 10 -4 10 -10z m-45 -10 c-3 -5 -10 -10 -16 -10 -5 0 -9 5 -9 10 0 6
7 10 16 10 8 0 12 -4 9 -10z m-25 -35 c0 -13 4 -14 21 -5 28 16 35 6 19 -27
-7 -16 -12 -34 -11 -41 6 -33 -70 -206 -131 -300 -10 -15 -24 -39 -33 -54 -9
-16 -20 -28 -25 -28 -6 0 -10 -5 -10 -11 0 -6 -19 -36 -43 -67 -23 -32 -49
-68 -58 -82 -9 -14 -30 -40 -48 -59 -17 -18 -31 -36 -31 -39 0 -3 -17 -26 -37
-51 -21 -25 -38 -52 -39 -61 -1 -8 -21 -47 -45 -85 -25 -39 -50 -81 -57 -95
-6 -14 -18 -34 -24 -45 -113 -179 -102 -168 -185 -167 -57 1 -70 5 -82 22 -7
11 -22 20 -33 20 -10 0 -31 8 -46 18 -124 85 -151 102 -160 102 -6 0 -24 11
-40 25 -16 13 -40 29 -53 35 -52 22 -120 67 -161 105 -40 38 -101 82 -157 115
-64 37 -183 134 -191 156 -5 13 -17 24 -27 25 -17 0 -72 66 -126 149 -13 19
-42 63 -65 96 -23 34 -42 69 -42 78 0 9 -7 19 -15 22 -18 7 -20 34 -2 35 6 1
1 4 -13 8 -21 6 -58 57 -60 84 -1 16 40 6 50 -14 11 -19 13 -19 35 -5 20 13
24 13 29 1 3 -8 24 -23 48 -34 37 -17 45 -18 54 -5 15 19 29 18 45 -6 8 -11
28 -22 47 -24 41 -4 55 -16 19 -16 -14 0 -29 -5 -32 -10 -6 -11 0 -14 49 -25
16 -3 30 -14 33 -26 4 -14 9 -17 18 -9 9 8 15 8 20 0 3 -5 17 -7 30 -4 12 3
26 1 29 -5 4 -7 1 -8 -8 -5 -21 8 -20 -5 1 -28 22 -24 36 -23 27 4 l-6 21 27
-21 c34 -27 45 -28 38 -3 -3 13 0 18 14 16 31 -4 63 -17 63 -26 0 -5 7 -6 16
-2 16 6 16 7 0 18 -9 7 -16 18 -16 26 0 8 12 1 27 -16 24 -28 25 -25 6 22 -6
14 -3 14 19 -3 14 -10 23 -24 21 -31 -3 -7 2 -10 14 -7 11 3 26 -3 37 -15 24
-27 40 -27 33 -1 -5 21 16 50 36 50 7 0 22 -7 34 -15 20 -14 24 -13 49 10 28
26 58 32 69 15 3 -5 12 -10 18 -10 7 0 4 7 -6 15 -18 13 -17 14 7 30 14 10 33
14 42 11 8 -3 24 -1 36 5 18 10 18 12 4 28 -22 24 -20 29 8 24 16 -3 23 -10
19 -19 -7 -18 2 -18 21 2 9 8 16 28 16 44 0 32 15 48 23 26 8 -20 45 -9 53 16
6 20 31 19 26 -2 -1 -6 7 -14 18 -17 25 -7 26 -38 3 -53 -14 -8 -10 -9 18 -4
25 4 39 1 48 -10 7 -9 17 -13 22 -10 5 3 24 0 43 -7 29 -11 36 -10 51 4 21 22
33 21 37 0 3 -16 6 -15 27 6 l24 24 -6 -31 c-5 -24 -3 -32 8 -32 8 0 15 7 15
15 0 8 5 15 10 15 6 0 10 -9 10 -20 0 -12 -7 -20 -16 -20 -12 0 -14 -3 -6 -12
6 -7 10 -17 9 -23 -1 -5 8 -11 21 -13 12 -2 22 2 22 8 0 6 -4 9 -9 5 -5 -3
-12 -2 -15 3 -6 11 72 97 81 89 3 -4 -2 -16 -11 -26 -10 -11 -16 -25 -14 -31
4 -14 58 26 58 43 0 7 10 18 22 26 22 14 22 14 5 -12 -9 -15 -17 -34 -17 -43
0 -13 6 -10 25 12 14 16 25 33 25 38 0 5 6 3 13 -3 16 -12 27 -5 27 18 0 22
60 80 76 74 8 -3 14 0 14 6 0 6 -4 11 -10 11 -5 0 -10 5 -10 10 0 6 11 10 25
10 14 0 25 4 25 8 0 5 12 15 26 23 14 7 30 24 35 36 10 26 39 31 39 8z m-1700
-107 c0 -23 -16 -16 -23 11 -3 14 -1 18 9 14 8 -3 14 -14 14 -25z m874 0 c6
-4 7 -10 3 -15 -10 -9 -27 16 -26 37 1 13 1 13 6 0 3 -8 11 -18 17 -22z
m-1057 -4 c-3 -3 -12 -4 -19 -1 -8 3 -5 6 6 6 11 1 17 -2 13 -5z m106 -16 c4
-12 0 -18 -12 -18 -9 0 -17 8 -18 18 -1 10 5 19 12 19 7 0 16 -9 18 -19z
m1121 -3 c-4 -8 -8 -15 -10 -15 -2 0 -4 7 -4 15 0 8 4 15 10 15 5 0 7 -7 4
-15z m-33 -18 c-13 -13 -26 -3 -16 12 3 6 11 8 17 5 6 -4 6 -10 -1 -17z m49
-17 c0 -5 -4 -10 -10 -10 -5 0 -10 5 -10 10 0 6 5 10 10 10 6 0 10 -4 10 -10z
m-1000 -10 c0 -5 -4 -10 -10 -10 -5 0 -10 5 -10 10 0 6 5 10 10 10 6 0 10 -4
10 -10z m750 0 c0 -5 -2 -10 -4 -10 -3 0 -8 5 -11 10 -3 6 -1 10 4 10 6 0 11
-4 11 -10z m-810 -10 c0 -5 -2 -10 -4 -10 -3 0 -8 5 -11 10 -3 6 -1 10 4 10 6
0 11 -4 11 -10z m1017 4 c-3 -3 -12 -4 -19 -1 -8 3 -5 6 6 6 11 1 17 -2 13 -5z
m323 -4 c0 -5 -5 -10 -11 -10 -5 0 -7 5 -4 10 3 6 8 10 11 10 2 0 4 -4 4 -10z
m-295 -10 c3 -5 1 -10 -4 -10 -6 0 -11 5 -11 10 0 6 2 10 4 10 3 0 8 -4 11
-10z m-929 -15 c17 -16 14 -18 -10 -9 -9 3 -16 10 -16 15 0 13 9 11 26 -6z
m524 -15 c0 -5 -11 -9 -25 -8 -14 1 -25 6 -25 10 0 4 11 8 25 8 14 0 25 -4 25
-10z m-73 -30 c10 -13 8 -16 -6 -17 -14 -1 -17 4 -14 18 3 11 6 18 7 17 1 -2
7 -10 13 -18z m-322 -38 c-8 -8 -25 17 -25 38 0 9 6 6 16 -8 9 -13 13 -26 9
-30z m252 42 c-3 -3 -12 -4 -19 -1 -8 3 -5 6 6 6 11 1 17 -2 13 -5z m763 -883
c0 -6 -4 -13 -10 -16 -5 -3 -10 1 -10 9 0 9 5 16 10 16 6 0 10 -4 10 -9z
m-520 -171 c-14 -33 -31 -38 -50 -15 -10 12 -8 16 13 24 14 5 28 15 32 21 14
22 17 0 5 -30z m403 -303 c16 -31 17 -42 7 -71 -8 -25 -8 -41 -1 -55 13 -24
14 -151 1 -171 -5 -8 -10 -12 -12 -10 -27 42 -29 52 -14 69 21 23 21 92 0 117
-14 18 -15 16 -9 -25 6 -47 -6 -71 -36 -71 -20 0 -24 23 -33 163 l-4 77 29 0
c28 0 33 -7 32 -47 -1 -7 3 -13 8 -13 12 0 11 47 -1 55 -14 9 -12 27 3 23 6
-2 20 -21 30 -41z m-141 -9 c-12 -31 -13 -43 -4 -46 16 -5 15 -22 -2 -22 -9 0
-12 -8 -8 -25 5 -27 -12 -35 -22 -9 -13 34 -6 92 15 118 30 39 40 32 21 -16z
m24 -106 c-11 -32 -13 -82 -5 -88 4 -2 6 -11 3 -19 -3 -7 4 -18 16 -25 12 -6
18 -16 13 -23 -4 -6 -10 -27 -13 -47 l-7 -35 -13 30 c-6 17 -17 65 -22 108
-10 69 -9 80 7 97 22 25 28 25 21 2z m94 -262 c0 -67 -1 -70 -24 -70 -22 0
-25 5 -31 59 -8 69 -3 81 31 81 23 0 24 -2 24 -70z m-79 -81 c-9 -22 -10 -22
-10 -3 -1 11 2 24 6 27 12 12 14 0 4 -24z m-4 -251 c-2 -13 -4 -3 -4 22 0 25
2 35 4 23 2 -13 2 -33 0 -45z"/>
<path d="M5050 7479 c0 -5 5 -7 10 -4 6 3 10 8 10 11 0 2 -4 4 -10 4 -5 0 -10
-5 -10 -11z"/>
<path d="M4860 7460 c0 -5 5 -10 10 -10 6 0 10 5 10 10 0 6 -4 10 -10 10 -5 0
-10 -4 -10 -10z"/>
<path d="M4965 7460 c-3 -5 -1 -10 4 -10 6 0 11 5 11 10 0 6 -2 10 -4 10 -3 0
-8 -4 -11 -10z"/>
<path d="M4245 7440 c-3 -6 1 -7 9 -4 18 7 21 14 7 14 -6 0 -13 -4 -16 -10z"/>
<path d="M5078 7443 c7 -3 16 -2 19 1 4 3 -2 6 -13 5 -11 0 -14 -3 -6 -6z"/>
<path d="M5717 6075 c5 -15 2 -17 -15 -13 -12 4 -25 2 -28 -3 -3 -6 -11 -6
-19 1 -17 14 -35 5 -35 -16 0 -11 -6 -13 -21 -9 -18 6 -20 4 -14 -14 4 -12 2
-21 -4 -21 -6 0 -11 4 -11 9 0 17 -33 22 -49 7 -9 -8 -33 -17 -54 -21 -25 -5
-37 -12 -33 -20 6 -17 -19 -27 -50 -19 -17 4 -26 1 -30 -10 -4 -9 -20 -24 -36
-32 -26 -13 -28 -17 -14 -27 14 -11 13 -15 -5 -44 -12 -18 -27 -33 -34 -33 -7
0 -15 -11 -17 -24 -4 -18 0 -26 14 -29 12 -4 18 -14 18 -33 l0 -27 23 21 c23
22 47 29 47 14 0 -14 74 -13 110 1 50 21 136 40 195 42 27 2 58 3 68 4 9 1 17
8 17 16 0 16 35 21 45 5 3 -5 13 -6 22 -3 12 5 14 3 8 -7 -6 -10 -3 -12 13 -8
12 4 26 0 33 -8 6 -8 18 -14 26 -14 8 0 11 -4 8 -10 -3 -5 2 -11 12 -11 38 -3
44 -4 52 -17 4 -7 17 -14 29 -17 11 -2 42 -25 67 -52 29 -29 49 -43 53 -37 4
7 21 9 39 7 18 -3 31 -9 28 -13 -3 -4 1 -10 9 -13 19 -8 30 -58 15 -68 -9 -5
-5 -10 13 -14 44 -11 51 2 26 47 -21 37 -21 40 -5 49 15 9 16 13 2 39 -11 21
-12 36 -5 55 13 34 7 72 -17 120 -30 59 -99 124 -124 118 -5 -2 -9 2 -9 7 0 6
-6 10 -13 10 -7 0 -19 9 -27 20 -8 11 -20 20 -28 20 -7 0 -23 11 -36 25 -24
26 -95 41 -126 26 -17 -8 -84 12 -74 22 4 4 -2 7 -14 7 -11 0 -28 3 -36 6 -12
5 -15 2 -9 -11z m480 -287 c-3 -8 -6 -5 -6 6 -1 11 2 17 5 13 3 -3 4 -12 1
-19z m14 -27 c-9 -6 -10 -11 -2 -15 13 -9 15 -26 2 -26 -12 0 -23 29 -15 41 3
5 11 9 17 9 8 0 8 -3 -2 -9z"/>
<path d="M4179 6062 c-14 -9 -33 -25 -43 -34 -21 -22 -50 -24 -43 -3 9 22 -6
26 -36 10 -23 -12 -27 -12 -27 1 0 8 -7 14 -14 14 -19 0 -104 -45 -131 -69
-11 -10 -42 -30 -69 -46 -70 -39 -141 -109 -188 -185 -22 -36 -49 -72 -61 -81
-28 -23 -13 -43 27 -35 20 4 26 3 17 -3 -8 -5 -11 -16 -8 -26 5 -12 2 -16 -15
-13 -18 2 -23 -2 -25 -24 -1 -19 3 -28 13 -28 8 0 29 -7 45 -16 30 -15 31 -15
24 5 -6 21 9 29 20 11 10 -16 26 -11 23 7 -3 20 29 30 107 32 41 2 46 4 28 11
-29 12 -30 24 -2 17 22 -6 22 1 4 46 -4 10 -3 17 4 17 6 0 11 -4 11 -10 0 -5
11 -10 25 -10 19 0 25 5 25 21 0 19 4 21 30 16 36 -8 41 10 5 19 -31 8 -33 28
-2 21 12 -3 31 -2 42 3 11 4 31 3 44 -2 32 -12 35 -6 11 20 -12 12 -16 22 -11
22 5 0 13 -4 16 -10 3 -5 11 -10 17 -10 6 0 3 11 -6 24 -23 36 -4 40 29 6 29
-31 57 -40 52 -18 -1 7 -9 18 -17 25 -13 10 -13 12 3 19 10 3 23 2 30 -5 14
-14 77 -15 77 -1 0 6 6 10 14 10 8 0 16 5 18 12 3 9 12 9 36 -1 17 -7 35 -10
41 -7 5 3 19 -6 30 -20 12 -15 21 -22 21 -15 0 14 127 6 146 -10 11 -9 18 -8
29 1 8 7 15 8 15 2 0 -5 18 -10 41 -10 32 -1 42 4 49 21 7 17 9 18 9 5 1 -25
16 -22 35 7 16 24 16 28 0 61 -14 28 -14 38 -5 44 10 6 10 12 2 28 -15 28 -14
32 4 26 25 -10 7 20 -27 46 -24 18 -38 21 -70 16 -22 -4 -56 -4 -76 0 -33 6
-34 8 -17 20 16 12 6 13 -73 10 -58 -3 -92 -1 -92 5 0 6 -12 9 -27 8 -16 -1
-39 -1 -53 0 -20 1 -22 3 -10 11 11 7 8 10 -15 9 -16 0 -42 -8 -56 -17z m-224
-262 c3 -6 -1 -7 -9 -4 -18 7 -21 14 -7 14 6 0 13 -4 16 -10z m-205 -203 c-45
-12 -60 -3 -25 15 21 10 34 12 44 4 10 -8 6 -12 -19 -19z m-100 13 c0 -5 -5
-10 -11 -10 -5 0 -7 5 -4 10 3 6 8 10 11 10 2 0 4 -4 4 -10z"/>
<path d="M4720 5908 c-25 -51 -25 -51 0 -43 11 4 20 2 20 -4 0 -6 -4 -11 -10
-11 -5 0 -10 -4 -10 -10 0 -18 19 -11 55 21 37 33 46 53 19 42 -14 -5 -16 -2
-10 20 8 33 -7 35 -23 5 l-11 -23 6 23 c9 37 -14 25 -36 -20z"/>
<path d="M4801 5846 c-6 -8 -25 -19 -40 -26 -21 -8 -27 -17 -24 -31 4 -13 0
-19 -11 -19 -9 0 -16 -4 -16 -9 0 -14 81 5 98 24 18 19 17 19 -33 -1 -8 -3
-15 -1 -15 5 0 6 6 11 13 11 7 0 26 14 42 30 21 22 24 30 13 30 -9 0 -21 -6
-27 -14z"/>
<path d="M4755 5740 c-3 -5 1 -10 10 -10 9 0 13 5 10 10 -3 6 -8 10 -10 10 -2
0 -7 -4 -10 -10z"/>
<path d="M5215 5710 c-19 -8 -19 -9 3 -9 12 -1 22 4 22 9 0 6 -1 10 -2 9 -2 0
-12 -4 -23 -9z"/>
<path d="M5122 5680 c0 -14 2 -19 5 -12 2 6 2 18 0 25 -3 6 -5 1 -5 -13z"/>
<path d="M5080 5680 c8 -5 20 -10 25 -10 6 0 3 5 -5 10 -8 5 -19 10 -25 10 -5
0 -3 -5 5 -10z"/>
<path d="M4400 5665 c32 -18 40 -18 40 0 0 10 -10 15 -32 15 l-33 -1 25 -14z"/>
<path d="M5180 5660 c6 -11 14 -20 19 -20 4 0 8 -44 8 -97 0 -65 3 -98 11
-101 7 -2 9 -8 6 -13 -3 -6 0 -17 7 -25 9 -11 9 -18 1 -26 -15 -15 -15 -28 -2
-28 6 0 10 7 10 15 0 26 16 16 39 -25 20 -36 81 -91 81 -74 0 5 5 3 12 -4 7
-7 26 -12 43 -12 16 0 46 -10 65 -21 19 -12 67 -30 107 -39 39 -10 76 -21 81
-24 5 -3 35 -8 66 -10 31 -3 61 -8 66 -11 4 -3 21 0 37 6 38 14 20 23 -77 38
-93 15 -122 26 -138 52 -13 20 -12 21 30 14 24 -4 45 -11 46 -16 2 -5 8 -9 13
-9 6 0 7 5 4 10 -4 6 13 10 42 11 l48 1 -50 12 c-43 11 -50 15 -47 34 2 16 -2
22 -16 22 -23 0 -52 30 -52 54 0 25 29 31 45 10 13 -17 14 -17 15 -2 0 26 17
31 44 13 14 -9 30 -14 36 -10 6 4 17 2 25 -5 8 -7 15 -7 19 -1 4 6 18 6 38 0
18 -5 41 -6 51 -3 11 3 27 -2 37 -11 11 -10 26 -15 35 -12 8 4 15 2 15 -3 0
-6 7 -10 15 -10 8 0 15 5 15 10 0 6 7 7 18 1 41 -21 94 -41 107 -41 25 0 -8
76 -37 86 -15 4 -17 9 -7 20 9 11 4 23 -26 60 -111 136 -305 201 -505 170 -42
-6 -43 -6 -21 7 l23 14 -21 6 c-14 3 -24 0 -28 -9 -3 -8 -13 -14 -23 -14 -10
0 -20 -5 -22 -11 -4 -11 -65 -29 -114 -34 -49 -4 -74 -15 -74 -31 0 -8 -10
-14 -25 -14 -14 0 -28 0 -32 -1 -4 0 -9 4 -11 10 -2 6 2 11 10 11 7 0 21 7 31
14 16 13 15 16 -19 50 -41 41 -93 52 -74 16z m340 -39 c0 -9 -24 -21 -43 -21
-6 0 -2 7 9 15 22 17 34 19 34 6z m177 2 c-9 -2 -14 -9 -11 -15 4 -7 2 -8 -5
-4 -15 10 -4 26 17 25 15 -1 15 -2 -1 -6z m86 -10 c-7 -2 -21 -2 -30 0 -10 3
-4 5 12 5 17 0 24 -2 18 -5z m-30 -70 c-7 -2 -19 -2 -25 0 -7 3 -2 5 12 5 14
0 19 -2 13 -5z m286 -66 c43 -47 52 -66 22 -45 -37 26 -91 78 -91 88 0 17 33
-3 69 -43z m-329 -27 c0 -5 -4 -10 -10 -10 -5 0 -10 5 -10 10 0 6 5 10 10 10
6 0 10 -4 10 -10z m-290 -85 c0 -8 -4 -15 -9 -15 -13 0 -22 16 -14 24 11 11
23 6 23 -9z"/>
<path d="M4187 5615 c-120 -20 -211 -52 -261 -90 -26 -19 -49 -35 -52 -35 -3
0 -25 -20 -51 -45 -25 -25 -49 -45 -54 -45 -5 0 -9 -4 -9 -9 0 -19 -51 -61
-75 -61 -14 0 -25 -4 -25 -10 0 -5 11 -10 23 -10 31 0 40 -10 25 -27 -18 -22
-2 -26 64 -15 35 6 79 10 98 9 52 -3 45 -27 -13 -42 -56 -14 -77 -31 -27 -21
19 4 98 9 175 13 132 6 139 5 126 -11 -17 -20 -29 -22 159 26 168 42 221 50
227 32 5 -15 -109 -59 -199 -78 -115 -24 -138 -38 -51 -31 73 6 226 54 308 96
22 12 56 30 77 40 20 10 51 37 70 59 22 25 47 42 66 46 37 7 44 38 12 47 -14
3 -20 14 -20 32 0 18 -6 29 -20 32 -11 3 -20 9 -20 13 0 11 -44 20 -110 22
-57 2 -107 20 -127 47 -6 9 -15 12 -19 8 -5 -4 -2 -12 6 -17 8 -5 11 -12 7
-16 -3 -4 -12 -2 -19 4 -23 19 -137 52 -175 51 -21 -1 -73 -7 -116 -14z m150
-22 c-4 -3 -1 -13 6 -21 10 -13 9 -15 -11 -10 -16 4 -25 1 -29 -9 -4 -9 -14
-13 -27 -9 -11 3 -30 -2 -40 -10 -19 -14 -19 -14 -1 -14 14 0 16 -3 8 -11 -8
-8 -22 -5 -51 10 -23 12 -48 21 -57 21 -18 0 -20 -17 -2 -23 6 -2 -7 -10 -30
-17 -36 -11 -44 -11 -58 4 -9 9 -13 16 -8 16 4 0 2 4 -6 9 -32 21 138 68 248
70 35 1 61 -2 58 -6z m-327 -67 c0 -3 -4 -8 -10 -11 -5 -3 -10 -1 -10 4 0 6 5
11 10 11 6 0 10 -2 10 -4z m138 -167 c18 -19 21 -19 36 -3 16 15 18 15 36 -1
14 -12 20 -14 20 -5 0 6 6 10 14 7 8 -3 20 1 26 9 14 16 50 19 50 4 0 -5 11
-10 25 -10 18 0 25 -5 25 -19 0 -11 5 -21 12 -23 22 -8 -55 -39 -141 -58 -47
-10 -88 -17 -92 -15 -3 3 -50 5 -103 6 -82 1 -98 4 -106 19 -10 19 11 47 28
36 6 -3 15 1 22 9 7 9 22 12 39 9 22 -5 34 1 57 25 16 17 30 31 31 31 1 0 11
-9 21 -21z m522 6 c0 -11 -12 -15 -45 -15 -69 0 -57 28 13 29 22 1 32 -4 32
-14z"/>
<path d="M5195 5410 c-3 -5 -1 -10 4 -10 6 0 11 5 11 10 0 6 -2 10 -4 10 -3 0
-8 -4 -11 -10z"/>
<path d="M4895 5340 c-4 -6 -3 -16 3 -22 6 -6 12 -6 17 2 4 6 3 16 -3 22 -6 6
-12 6 -17 -2z"/>
<path d="M5251 5253 c-1 -17 4 -35 10 -38 19 -13 23 5 6 38 l-16 32 0 -32z"/>
<path d="M6015 5225 c44 -8 90 -20 103 -25 13 -6 28 -7 34 -4 21 13 -58 36
-137 40 l-80 4 80 -15z"/>
<path d="M3968 5172 c-59 -15 -113 -33 -119 -39 -9 -9 -3 -9 22 -3 19 4 67 15
108 25 84 20 149 44 116 44 -11 0 -68 -12 -127 -27z"/>
<path d="M5961 5186 c12 -10 59 -15 59 -6 0 5 -14 10 -32 10 -17 0 -29 -2 -27
-4z"/>
<path d="M3595 5109 c-11 -16 -1 -19 13 -3 7 8 8 14 3 14 -5 0 -13 -5 -16 -11z"/>
<path d="M6450 5106 c0 -9 5 -16 10 -16 6 0 10 4 10 9 0 6 -4 13 -10 16 -5 3
-10 -1 -10 -9z"/>
<path d="M4685 5070 c-8 -13 4 -32 16 -25 12 8 12 35 0 35 -6 0 -13 -4 -16
-10z"/>
<path d="M5465 5060 c3 -5 13 -10 21 -10 8 0 12 5 9 10 -3 6 -13 10 -21 10 -8
0 -12 -4 -9 -10z"/>
<path d="M4658 5033 c7 -3 16 -2 19 1 4 3 -2 6 -13 5 -11 0 -14 -3 -6 -6z"/>
<path d="M4555 5004 c-16 -8 -37 -22 -46 -30 -8 -8 -23 -14 -32 -14 -10 0 -17
-8 -17 -20 0 -11 4 -20 10 -20 5 0 13 -12 16 -27 4 -15 16 -36 26 -47 16 -17
18 -18 18 -3 0 9 -4 17 -10 17 -5 0 -10 10 -10 23 1 24 66 97 90 100 23 4 40
17 40 30 0 8 -3 8 -9 -2 -6 -9 -11 -10 -15 -2 -10 15 -25 14 -61 -5z"/>
<path d="M2820 4955 c0 -8 4 -15 10 -15 5 0 7 7 4 15 -4 8 -8 15 -10 15 -2 0
-4 -7 -4 -15z"/>
<path d="M4450 4890 c19 -13 30 -13 30 0 0 6 -10 10 -22 10 -19 0 -20 -2 -8
-10z"/>
<path d="M3560 4870 c20 -13 43 -13 35 0 -3 6 -16 10 -28 10 -18 0 -19 -2 -7
-10z"/>
<path d="M3545 4821 c-3 -6 -14 -11 -24 -11 -25 0 -78 -77 -63 -92 15 -15 42
-2 42 20 0 23 25 46 70 66 19 8 30 15 23 16 -6 0 -18 3 -26 6 -8 3 -18 1 -22
-5z"/>
<path d="M3407 4775 c-11 -16 -13 -26 -6 -30 12 -8 20 -2 23 17 1 7 5 19 9 26
15 22 -8 12 -26 -13z"/>
<path d="M3565 4780 c3 -5 8 -10 11 -10 2 0 4 5 4 10 0 6 -5 10 -11 10 -5 0
-7 -4 -4 -10z"/>
<path d="M3696 4739 c4 -28 2 -38 -10 -42 -21 -8 -20 -25 1 -23 10 0 19 -7 21
-19 6 -39 12 -49 23 -38 6 6 6 19 -1 37 -9 24 -8 29 10 33 26 7 26 23 0 30
-11 3 -20 8 -20 12 0 4 -7 16 -15 27 -14 18 -15 17 -9 -17z"/>
<path d="M4297 4754 c-4 -4 -7 -14 -7 -23 0 -11 3 -12 11 -4 6 6 10 16 7 23
-2 6 -7 8 -11 4z"/>
<path d="M3422 4680 c0 -19 2 -27 5 -17 2 9 2 25 0 35 -3 9 -5 1 -5 -18z"/>
<path d="M3753 4613 c-14 -5 -18 -43 -5 -43 4 0 12 11 19 25 11 25 9 28 -14
18z"/>
<path d="M3635 4600 c-3 -5 -1 -10 4 -10 6 0 11 5 11 10 0 6 -2 10 -4 10 -3 0
-8 -4 -11 -10z"/>
<path d="M6230 4530 c0 -5 5 -10 11 -10 5 0 7 5 4 10 -3 6 -8 10 -11 10 -2 0
-4 -4 -4 -10z"/>
<path d="M3132 4020 c0 -14 2 -19 5 -12 2 6 2 18 0 25 -3 6 -5 1 -5 -13z"/>
<path d="M3115 3980 c3 -5 11 -10 16 -10 6 0 7 5 4 10 -3 6 -11 10 -16 10 -6
0 -7 -4 -4 -10z"/>
<path d="M6460 3450 c0 -5 5 -10 11 -10 5 0 7 5 4 10 -3 6 -8 10 -11 10 -2 0
-4 -4 -4 -10z"/>
<path d="M6500 3350 c0 -13 18 -22 24 -11 3 5 -1 11 -9 15 -8 3 -15 1 -15 -4z"/>
<path d="M6580 3315 c7 -8 17 -15 22 -15 6 0 5 7 -2 15 -7 8 -17 15 -22 15 -6
0 -5 -7 2 -15z"/>
<path d="M6590 3239 c0 -5 11 -9 25 -9 14 0 25 2 25 4 0 2 -11 6 -25 8 -14 3
-25 1 -25 -3z"/>
<path d="M5225 4390 c-3 -5 -2 -10 4 -10 5 0 16 -3 25 -6 11 -4 16 -1 16 10 0
18 -35 22 -45 6z"/>
<path d="M4010 2410 c0 -5 5 -10 11 -10 5 0 7 5 4 10 -3 6 -8 10 -11 10 -2 0
-4 -4 -4 -10z"/>
<path d="M4040 2400 c0 -5 7 -10 16 -10 8 0 12 5 9 10 -3 6 -10 10 -16 10 -5
0 -9 -4 -9 -10z"/>
<path d="M4083 2387 c5 -15 37 -22 37 -9 0 5 -9 12 -21 15 -13 3 -19 1 -16 -6z"/>
<path d="M5360 2339 c0 -5 5 -7 10 -4 6 3 10 8 10 11 0 2 -4 4 -10 4 -5 0 -10
-5 -10 -11z"/>
<path d="M4250 2290 c-12 -8 -10 -10 8 -10 13 0 20 4 17 10 -7 12 -6 12 -25 0z"/>
<path d="M4645 2280 c-3 -5 -1 -10 4 -10 6 0 11 5 11 10 0 6 -2 10 -4 10 -3 0
-8 -4 -11 -10z"/>
<path d="M5270 930 c0 -19 3 -21 12 -12 9 9 9 15 0 24 -9 9 -12 7 -12 -12z"/>
</g>
</svg>
